<?xml version="1.0" encoding="utf-8"?>
<!-- Generator: Adobe Illustrator 26.0.1, SVG Export Plug-In . SVG Version: 6.00 Build 0)  -->
<svg version="1.1" id="Layer_1" xmlns="http://www.w3.org/2000/svg" xmlns:xlink="http://www.w3.org/1999/xlink" x="0px" y="0px"
	 viewBox="0 0 24 24" style="enable-background:new 0 0 24 24;" xml:space="preserve">
<style type="text/css">
	.st0{fill:#0D0D0D;}
</style>
<path class="st0" d="M12,4C9.8,4,8,5.8,8,8s1.8,4,4,4s4-1.8,4-4S14.2,4,12,4z M6,8c0-3.3,2.7-6,6-6s6,2.7,6,6s-2.7,6-6,6S6,11.3,6,8
	z M8,18c-1.7,0-3,1.3-3,3c0,0.6-0.4,1-1,1s-1-0.4-1-1c0-2.8,2.2-5,5-5h8c2.8,0,5,2.2,5,5c0,0.6-0.4,1-1,1s-1-0.4-1-1
	c0-1.7-1.3-3-3-3H8z"/>
<path class="st0" d="M14.7,6c0.4,0.4,0.4,1,0.1,1.4l-2.7,3c-0.4,0.4-1,0.5-1.4,0.1c0,0-0.1-0.1-0.1-0.1L9.3,8.9
	C8.9,8.5,9,7.9,9.4,7.5c0.4-0.3,1-0.3,1.4,0.1l0.6,0.7l1.9-2.2C13.7,5.7,14.3,5.6,14.7,6z"/>
<g>
	<g>
		<path d="M10.4,22.5l0.5-0.7c0.2,0.2,0.5,0.4,0.8,0.4c0.4,0,0.6-0.1,0.6-0.4c0-0.3-0.2-0.5-1-0.5v-0.8c0.7,0,0.9-0.2,0.9-0.5
			c0-0.2-0.1-0.4-0.4-0.4c-0.3,0-0.5,0.1-0.7,0.3l-0.5-0.7c0.4-0.3,0.8-0.5,1.3-0.5c0.9,0,1.5,0.4,1.5,1.1c0,0.4-0.2,0.7-0.6,0.9v0
			c0.5,0.1,0.8,0.5,0.8,1c0,0.8-0.7,1.2-1.6,1.2C11.2,23,10.7,22.8,10.4,22.5z"/>
	</g>
</g>
</svg>
