<?xml version="1.0" encoding="utf-8"?>
<!-- Generator: Adobe Illustrator 26.0.1, SVG Export Plug-In . SVG Version: 6.00 Build 0)  -->
<svg version="1.1" id="Layer_1" xmlns="http://www.w3.org/2000/svg" xmlns:xlink="http://www.w3.org/1999/xlink" x="0px" y="0px"
	 viewBox="0 0 24 24" style="enable-background:new 0 0 24 24;" xml:space="preserve">
<style type="text/css">
	.st0{fill:#0D0D0D;}
</style>
<path class="st0" d="M12,4.5C9.5,2.3,5.7,2.5,3.5,5c-2.1,2.4-2,6,0.2,8.3l6.8,6.8c0.8,0.8,2,0.8,2.8,0l6.8-6.8
	c2.3-2.3,2.4-6.1,0-8.5C18,2.5,14.4,2.4,12,4.5z M10.8,6.2l0.5,0.5c0.4,0.4,1,0.4,1.4,0l0.5-0.5c1.5-1.6,4.1-1.6,5.7-0.1
	s1.6,4.1,0.1,5.7c0,0-0.1,0.1-0.1,0.1L12,18.7l-6.8-6.8c-1.5-1.6-1.5-4.1,0.1-5.7C6.8,4.7,9.3,4.7,10.8,6.2z"/>
<g>
	<g>
		<path d="M7.4,12.1l0.4-0.6c0.2,0.2,0.5,0.4,0.7,0.4c0.4,0,0.5-0.2,0.5-0.5c0-0.3-0.2-0.5-0.5-0.5c-0.2,0-0.3,0-0.5,0.2l-0.4-0.3
			l0.1-1.9H10v0.8H8.6l0,0.5c0.1,0,0.2-0.1,0.4-0.1c0.6,0,1.2,0.4,1.2,1.1c0,0.8-0.6,1.3-1.4,1.3C8.1,12.7,7.7,12.4,7.4,12.1z"/>
		<path d="M10.6,10.7c0-1.3,0.6-1.9,1.4-1.9c0.8,0,1.4,0.6,1.4,1.9c0,1.3-0.6,1.9-1.4,1.9C11.2,12.7,10.6,12,10.6,10.7z M12.4,10.7
			c0-1-0.2-1.1-0.4-1.1c-0.2,0-0.4,0.2-0.4,1.1c0,1,0.2,1.2,0.4,1.2C12.2,11.9,12.4,11.7,12.4,10.7z"/>
		<path d="M13.8,10.7c0-1.3,0.6-1.9,1.4-1.9s1.4,0.6,1.4,1.9c0,1.3-0.6,1.9-1.4,1.9S13.8,12,13.8,10.7z M15.6,10.7
			c0-1-0.2-1.1-0.4-1.1c-0.2,0-0.4,0.2-0.4,1.1c0,1,0.2,1.2,0.4,1.2C15.4,11.9,15.6,11.7,15.6,10.7z"/>
	</g>
</g>
</svg>
