<?xml version="1.0" encoding="utf-8"?>
<!-- Generator: Adobe Illustrator 26.0.1, SVG Export Plug-In . SVG Version: 6.00 Build 0)  -->
<svg version="1.1" id="Layer_1" xmlns="http://www.w3.org/2000/svg" xmlns:xlink="http://www.w3.org/1999/xlink" x="0px" y="0px"
	 viewBox="0 0 24 24" style="enable-background:new 0 0 24 24;" xml:space="preserve">
<style type="text/css">
	.st0{fill:#0D0D0D;}
</style>
<path class="st0" d="M2,6c0-1.1,0.9-2,2-2h16c1.1,0,2,0.9,2,2v12c0,1.1-0.9,2-2,2H4c-1.1,0-2-0.9-2-2V6z M5.5,6l6.5,5.7L18.5,6H5.5
	L5.5,6z M20,7.3l-7.3,6.4c-0.4,0.3-0.9,0.3-1.3,0L4,7.3V18h16V7.3z"/>
<g>
	<g>
		<path d="M5.2,16.5l0.5-0.7C6,16,6.3,16.2,6.6,16.2c0.4,0,0.6-0.1,0.6-0.4c0-0.3-0.2-0.5-1.1-0.5v-0.8C6.8,14.5,7,14.3,7,14
			c0-0.3-0.2-0.4-0.4-0.4c-0.3,0-0.5,0.1-0.7,0.3l-0.6-0.7c0.4-0.3,0.9-0.5,1.4-0.5c0.9,0,1.5,0.4,1.5,1.2c0,0.4-0.2,0.7-0.7,0.9v0
			c0.5,0.1,0.8,0.5,0.8,1c0,0.8-0.8,1.2-1.6,1.2C6,17.1,5.5,16.9,5.2,16.5z"/>
	</g>
</g>
</svg>
