<?xml version="1.0" encoding="utf-8"?>
<!-- Generator: Adobe Illustrator 26.0.1, SVG Export Plug-In . SVG Version: 6.00 Build 0)  -->
<svg version="1.1" id="Layer_1" xmlns="http://www.w3.org/2000/svg" xmlns:xlink="http://www.w3.org/1999/xlink" x="0px" y="0px"
	 viewBox="0 0 24 24" style="enable-background:new 0 0 24 24;" xml:space="preserve">
<style type="text/css">
	.st0{fill:#0D0D0D;}
</style>
<path class="st0" d="M2,6c0-1.1,0.9-2,2-2h16c1.1,0,2,0.9,2,2v12c0,1.1-0.9,2-2,2H4c-1.1,0-2-0.9-2-2V6z M5.5,6l6.5,5.7L18.5,6H5.5
	L5.5,6z M20,7.3l-7.3,6.4c-0.4,0.3-0.9,0.3-1.3,0L4,7.3V18h16V7.3z"/>
<g>
	<g>
		<path d="M5.3,15c0-1.5,0.8-2.3,1.7-2.3c0.6,0,1,0.3,1.3,0.5l-0.6,0.7c-0.1-0.1-0.4-0.3-0.6-0.3c-0.4,0-0.8,0.3-0.8,1.3
			c0,1.1,0.3,1.3,0.6,1.3c0.2,0,0.5-0.1,0.5-0.6c0-0.4-0.2-0.5-0.5-0.5c-0.2,0-0.4,0.1-0.6,0.4l-0.1-0.7c0.2-0.3,0.6-0.5,0.8-0.5
			c0.7,0,1.3,0.4,1.3,1.3c0,0.9-0.7,1.4-1.5,1.4C6.1,17.1,5.3,16.5,5.3,15z"/>
	</g>
</g>
</svg>
