<?xml version="1.0" encoding="utf-8"?>
<!-- Generator: Adobe Illustrator 26.0.1, SVG Export Plug-In . SVG Version: 6.00 Build 0)  -->
<svg version="1.1" id="Layer_1" xmlns="http://www.w3.org/2000/svg" xmlns:xlink="http://www.w3.org/1999/xlink" x="0px" y="0px"
	 viewBox="0 0 24 24" style="enable-background:new 0 0 24 24;" xml:space="preserve">
<style type="text/css">
	.st0{fill:#0D0D0D;}
</style>
<path class="st0" d="M2,6c0-1.1,0.9-2,2-2h16c1.1,0,2,0.9,2,2v11c0,1.1-0.9,2-2,2h-4.6l-2.7,2.7c-0.4,0.4-1,0.4-1.4,0L8.6,19H4
	c-1.1,0-2-0.9-2-2V6z M20,6H4v11h5c0.3,0,0.5,0.1,0.7,0.3l2.3,2.3l2.3-2.3c0.2-0.2,0.4-0.3,0.7-0.3h5V6z"/>
<g>
	<g>
		<path d="M8.4,13.4l0.5-0.8C9.2,12.8,9.5,13,9.8,13c0.4,0,0.7-0.2,0.7-0.6c0-0.4-0.3-0.6-0.6-0.6c-0.2,0-0.4,0-0.6,0.2l-0.5-0.3
			l0.1-2.3h2.6v1H9.9l-0.1,0.6c0.2-0.1,0.3-0.1,0.4-0.1c0.8,0,1.4,0.4,1.4,1.4c0,1-0.8,1.6-1.7,1.6C9.2,14,8.7,13.7,8.4,13.4z"/>
		<path d="M12.2,11.7c0-1.5,0.7-2.3,1.7-2.3c1,0,1.7,0.8,1.7,2.3c0,1.5-0.7,2.3-1.7,2.3C12.9,14,12.2,13.2,12.2,11.7z M14.4,11.7
			c0-1.2-0.2-1.4-0.5-1.4c-0.3,0-0.5,0.2-0.5,1.4s0.2,1.4,0.5,1.4C14.2,13.1,14.4,12.8,14.4,11.7z"/>
	</g>
</g>
</svg>
