<?xml version="1.0" encoding="utf-8"?>
<!-- Generator: Adobe Illustrator 26.0.1, SVG Export Plug-In . SVG Version: 6.00 Build 0)  -->
<svg version="1.1" id="Layer_1" xmlns="http://www.w3.org/2000/svg" xmlns:xlink="http://www.w3.org/1999/xlink" x="0px" y="0px"
	 viewBox="0 0 24 24" style="enable-background:new 0 0 24 24;" xml:space="preserve">
<style type="text/css">
	.st0{fill:#0D0D0D;}
</style>
<path class="st0" d="M2,6c0-1.1,0.9-2,2-2h16c1.1,0,2,0.9,2,2v11c0,1.1-0.9,2-2,2h-4.6l-2.7,2.7c-0.4,0.4-1,0.4-1.4,0L8.6,19H4
	c-1.1,0-2-0.9-2-2V6z M20,6H4v11h5c0.3,0,0.5,0.1,0.7,0.3l2.3,2.3l2.3-2.3c0.2-0.2,0.4-0.3,0.7-0.3h5V6z"/>
<g>
	<g>
		<path d="M6.8,12.9h1v-2.3H6.9V9.9c0.5-0.1,0.8-0.2,1.2-0.4h0.9v3.5h0.8v1h-3V12.9z"/>
		<path d="M10.3,11.7c0-1.5,0.7-2.3,1.7-2.3c1,0,1.7,0.8,1.7,2.3c0,1.5-0.7,2.3-1.7,2.3C11,14,10.3,13.2,10.3,11.7z M12.5,11.7
			c0-1.2-0.2-1.4-0.5-1.4c-0.3,0-0.5,0.2-0.5,1.4s0.2,1.4,0.5,1.4C12.3,13.1,12.5,12.8,12.5,11.7z"/>
		<path d="M14.1,11.7c0-1.5,0.7-2.3,1.7-2.3c1,0,1.7,0.8,1.7,2.3c0,1.5-0.7,2.3-1.7,2.3C14.8,14,14.1,13.2,14.1,11.7z M16.3,11.7
			c0-1.2-0.2-1.4-0.5-1.4c-0.3,0-0.5,0.2-0.5,1.4s0.2,1.4,0.5,1.4C16.1,13.1,16.3,12.8,16.3,11.7z"/>
	</g>
</g>
</svg>
