<?xml version="1.0" encoding="utf-8"?>
<!-- Generator: Adobe Illustrator 26.0.1, SVG Export Plug-In . SVG Version: 6.00 Build 0)  -->
<svg version="1.1" id="Layer_1" xmlns="http://www.w3.org/2000/svg" xmlns:xlink="http://www.w3.org/1999/xlink" x="0px" y="0px"
	 viewBox="0 0 24 24" style="enable-background:new 0 0 24 24;" xml:space="preserve">
<style type="text/css">
	.st0{fill:#0D0D0D;}
</style>
<path class="st0" d="M12,3.2c-2.2,0-4,1.8-4,4s1.8,4,4,4s4-1.8,4-4S14.2,3.2,12,3.2z M6,7.2c0-3.3,2.7-6,6-6s6,2.7,6,6s-2.7,6-6,6
	S6,10.6,6,7.2z M8,17.2c-1.7,0-3,1.3-3,3c0,0.6-0.4,1-1,1s-1-0.4-1-1c0-2.8,2.2-5,5-5h8c2.8,0,5,2.2,5,5c0,0.6-0.4,1-1,1s-1-0.4-1-1
	c0-1.7-1.3-3-3-3H8z"/>
<g>
	<g>
		<path d="M8.4,22.2l0.5-0.8c0.3,0.2,0.6,0.4,0.9,0.4c0.4,0,0.7-0.2,0.7-0.6c0-0.4-0.3-0.6-0.6-0.6c-0.2,0-0.4,0-0.6,0.2l-0.5-0.3
			l0.1-2.3h2.6v1H9.9L9.8,20c0.2-0.1,0.3-0.1,0.4-0.1c0.8,0,1.4,0.4,1.4,1.4c0,1-0.8,1.6-1.7,1.6C9.2,22.8,8.7,22.6,8.4,22.2z"/>
		<path d="M12.2,20.5c0-1.5,0.7-2.3,1.7-2.3c1,0,1.7,0.8,1.7,2.3c0,1.5-0.7,2.3-1.7,2.3C12.9,22.8,12.2,22,12.2,20.5z M14.4,20.5
			c0-1.2-0.2-1.4-0.5-1.4c-0.3,0-0.5,0.2-0.5,1.4s0.2,1.4,0.5,1.4C14.2,21.9,14.4,21.7,14.4,20.5z"/>
	</g>
</g>
<path class="st0" d="M12,4.2c0.6,0,1,0.4,1,1v1h1c0.6,0,1,0.4,1,1s-0.4,1-1,1h-1v1c0,0.6-0.4,1-1,1s-1-0.4-1-1v-1h-1
	c-0.6,0-1-0.4-1-1s0.4-1,1-1h1v-1C11,4.7,11.4,4.2,12,4.2z"/>
</svg>
