<?xml version="1.0" encoding="utf-8"?>
<!-- Generator: Adobe Illustrator 26.0.1, SVG Export Plug-In . SVG Version: 6.00 Build 0)  -->
<svg version="1.1" id="Layer_1" xmlns="http://www.w3.org/2000/svg" xmlns:xlink="http://www.w3.org/1999/xlink" x="0px" y="0px"
	 viewBox="0 0 24 24" style="enable-background:new 0 0 24 24;" xml:space="preserve">
<style type="text/css">
	.st0{fill:#0D0D0D;}
</style>
<path class="st0" d="M21.9,11.6C19.7,7.2,15.9,5,12,5c-3.9,0-7.7,2.2-9.9,6.6c-0.1,0.3-0.1,0.6,0,0.9c2.2,4.3,6,6.6,9.9,6.6
	c3.9,0,7.7-2.2,9.9-6.6C22,12.2,22,11.8,21.9,11.6z M12,17c-3,0-6-1.6-7.9-5C6,8.6,9,7,12,7c3,0,6,1.6,7.9,5C18,15.4,15,17,12,17z"
	/>
<g>
	<g>
		<path d="M8.5,13.2c1.1-1,1.9-1.7,1.9-2.3c0-0.4-0.2-0.6-0.5-0.6c-0.3,0-0.5,0.2-0.7,0.4l-0.6-0.6c0.5-0.5,0.9-0.7,1.5-0.7
			c0.9,0,1.5,0.6,1.5,1.5c0,0.7-0.7,1.5-1.3,2.1c0.2,0,0.5-0.1,0.7-0.1h0.7v1H8.5V13.2z"/>
		<path d="M12.2,13.4l0.5-0.8c0.3,0.2,0.6,0.4,0.9,0.4c0.4,0,0.7-0.2,0.7-0.6c0-0.4-0.3-0.6-0.6-0.6c-0.2,0-0.4,0-0.6,0.2l-0.5-0.3
			l0.1-2.3h2.6v1h-1.6l-0.1,0.6c0.2-0.1,0.3-0.1,0.4-0.1c0.8,0,1.4,0.4,1.4,1.4c0,1-0.8,1.6-1.7,1.6C13,14,12.5,13.7,12.2,13.4z"/>
	</g>
</g>
</svg>
