<?xml version="1.0" encoding="utf-8"?>
<!-- Generator: Adobe Illustrator 26.0.1, SVG Export Plug-In . SVG Version: 6.00 Build 0)  -->
<svg version="1.1" id="Layer_1" xmlns="http://www.w3.org/2000/svg" xmlns:xlink="http://www.w3.org/1999/xlink" x="0px" y="0px"
	 viewBox="0 0 24 24" style="enable-background:new 0 0 24 24;" xml:space="preserve">
<style type="text/css">
	.st0{fill:#0D0D0D;}
</style>
<path class="st0" d="M21.9,11.6C19.7,7.2,15.9,5,12,5s-7.7,2.2-9.9,6.6c-0.1,0.3-0.1,0.6,0,0.9c2.2,4.3,6,6.6,9.9,6.6
	s7.7-2.2,9.9-6.6C22,12.2,22,11.8,21.9,11.6z M12,17c-3,0-6-1.6-7.9-5C6,8.6,9,7,12,7s6,1.6,7.9,5C18,15.4,15,17,12,17z"/>
<g>
	<g>
		<path d="M7.3,12.8h0.8v-1.9H7.4v-0.6c0.4-0.1,0.7-0.2,1-0.4h0.7v2.9h0.7v0.8H7.3V12.8z"/>
		<path d="M10.3,11.8c0-1.3,0.6-1.9,1.4-1.9s1.4,0.6,1.4,1.9c0,1.3-0.6,1.9-1.4,1.9S10.3,13,10.3,11.8z M12.1,11.8
			c0-1-0.2-1.1-0.4-1.1s-0.4,0.2-0.4,1.1s0.2,1.2,0.4,1.2S12.1,12.8,12.1,11.8z"/>
		<path d="M13.7,9.8h1v1.4h0l1-1.4h1.1l-1.1,1.6l1.4,2.3h-1.1l-0.8-1.5l-0.4,0.5v1h-1V9.8z"/>
	</g>
</g>
</svg>
