<?xml version="1.0" encoding="utf-8"?>
<!-- Generator: Adobe Illustrator 26.0.1, SVG Export Plug-In . SVG Version: 6.00 Build 0)  -->
<svg version="1.1" id="Layer_1" xmlns="http://www.w3.org/2000/svg" xmlns:xlink="http://www.w3.org/1999/xlink" x="0px" y="0px"
	 viewBox="0 0 24 24" style="enable-background:new 0 0 24 24;" xml:space="preserve">
<style type="text/css">
	.st0{fill:#0D0D0D;}
</style>
<path class="st0" d="M21.9,11.6C19.7,7.2,15.9,5,12,5c-3.9,0-7.7,2.2-9.9,6.6c-0.1,0.3-0.1,0.6,0,0.9c2.2,4.3,6,6.6,9.9,6.6
	c3.9,0,7.7-2.2,9.9-6.6C22,12.2,22,11.8,21.9,11.6z M12,17c-3,0-6-1.6-7.9-5C6,8.6,9,7,12,7c3,0,6,1.6,7.9,5C18,15.4,15,17,12,17z"
	/>
<g>
	<g>
		<path d="M6.8,12.9h1v-2.3H6.9V9.9c0.5-0.1,0.8-0.2,1.2-0.4h0.9v3.5h0.8v1h-3V12.9z"/>
		<path d="M10.3,11.7c0-1.5,0.7-2.3,1.7-2.3c1,0,1.7,0.8,1.7,2.3c0,1.5-0.7,2.3-1.7,2.3C11,14,10.3,13.2,10.3,11.7z M12.5,11.7
			c0-1.2-0.2-1.4-0.5-1.4c-0.3,0-0.5,0.2-0.5,1.4s0.2,1.4,0.5,1.4C12.3,13.1,12.5,12.8,12.5,11.7z"/>
		<path d="M14.1,11.7c0-1.5,0.7-2.3,1.7-2.3c1,0,1.7,0.8,1.7,2.3c0,1.5-0.7,2.3-1.7,2.3C14.8,14,14.1,13.2,14.1,11.7z M16.3,11.7
			c0-1.2-0.2-1.4-0.5-1.4c-0.3,0-0.5,0.2-0.5,1.4s0.2,1.4,0.5,1.4C16.1,13.1,16.3,12.8,16.3,11.7z"/>
	</g>
</g>
</svg>
