<?xml version="1.0" encoding="utf-8"?>
<!-- Generator: Adobe Illustrator 26.0.1, SVG Export Plug-In . SVG Version: 6.00 Build 0)  -->
<svg version="1.1" id="Layer_1" xmlns="http://www.w3.org/2000/svg" xmlns:xlink="http://www.w3.org/1999/xlink" x="0px" y="0px"
	 viewBox="0 0 24 24" style="enable-background:new 0 0 24 24;" xml:space="preserve">
<style type="text/css">
	.st0{fill:#0D0D0D;}
</style>
<path class="st0" d="M21.9,11.6C19.7,7.2,15.9,5,12,5s-7.7,2.2-9.9,6.6c-0.1,0.3-0.1,0.6,0,0.9c2.2,4.3,6,6.6,9.9,6.6
	s7.7-2.2,9.9-6.6C22,12.2,22,11.8,21.9,11.6z M12,17c-3,0-6-1.6-7.9-5C6,8.6,9,7,12,7s6,1.6,7.9,5C18,15.4,15,17,12,17z"/>
<g>
	<g>
		<path d="M8.3,13h1v-2.3H8.5V9.9C9,9.8,9.3,9.7,9.6,9.5h0.9V13h0.8v1H8.3V13z"/>
		<path d="M12.2,9.4h1.2v1.7h0l1.1-1.7h1.3l-1.4,1.8l1.6,2.7h-1.3l-1-1.7l-0.4,0.6v1.1h-1.2V9.4z"/>
	</g>
</g>
</svg>
