<?xml version="1.0" encoding="utf-8"?>
<!-- Generator: Adobe Illustrator 26.0.1, SVG Export Plug-In . SVG Version: 6.00 Build 0)  -->
<svg version="1.1" id="Layer_1" xmlns="http://www.w3.org/2000/svg" xmlns:xlink="http://www.w3.org/1999/xlink" x="0px" y="0px"
	 viewBox="0 0 24 24" style="enable-background:new 0 0 24 24;" xml:space="preserve">
<style type="text/css">
	.st0{fill:#0D0D0D;}
</style>
<path class="st0" d="M21.9,11.6C19.7,7.2,15.9,5,12,5c-3.9,0-7.7,2.2-9.9,6.6c-0.1,0.3-0.1,0.6,0,0.9c2.2,4.3,6,6.6,9.9,6.6
	c3.9,0,7.7-2.2,9.9-6.6C22,12.2,22,11.8,21.9,11.6z M12,17c-3,0-6-1.6-7.9-5C6,8.6,9,7,12,7c3,0,6,1.6,7.9,5C18,15.4,15,17,12,17z"
	/>
<g>
	<g>
		<path d="M8.4,13.4l0.5-0.8C9.2,12.8,9.5,13,9.8,13c0.4,0,0.7-0.2,0.7-0.6c0-0.4-0.3-0.6-0.6-0.6c-0.2,0-0.4,0-0.6,0.2l-0.5-0.3
			l0.1-2.3h2.6v1H9.9l-0.1,0.6c0.2-0.1,0.3-0.1,0.4-0.1c0.8,0,1.4,0.4,1.4,1.4c0,1-0.8,1.6-1.7,1.6C9.2,14,8.7,13.7,8.4,13.4z"/>
		<path d="M12.2,11.7c0-1.5,0.7-2.3,1.7-2.3c1,0,1.7,0.8,1.7,2.3c0,1.5-0.7,2.3-1.7,2.3C12.9,14,12.2,13.2,12.2,11.7z M14.4,11.7
			c0-1.2-0.2-1.4-0.5-1.4c-0.3,0-0.5,0.2-0.5,1.4s0.2,1.4,0.5,1.4C14.2,13.1,14.4,12.8,14.4,11.7z"/>
	</g>
</g>
</svg>
