<svg version="1.1" xmlns="http://www.w3.org/2000/svg" xmlns:xlink="http://www.w3.org/1999/xlink" width="401.314" height="292.659" viewBox="0,0,401.314,292.659"><g transform="translate(-39.345,-33.335)"><g data-paper-data="{&quot;isPaintingLayer&quot;:true}" fill="#000000" fill-rule="evenodd" stroke="none" stroke-width="1" stroke-linecap="butt" stroke-linejoin="miter" stroke-miterlimit="10" stroke-dasharray="" stroke-dashoffset="0" style="mix-blend-mode: normal"><path d="M190.99,131.01l97.668,-97.675l22.001,22.001l22.002,22.001l-97.657,97.657l-97.657,97.656l-22.013,-21.982l-22.012,-21.983l97.668,-97.675M87.999,126.001c26.76,-26.767 48.964,-48.668 49.343,-48.668c0.379,0 10.278,9.603 21.998,21.34l21.309,21.34l-48.99,48.99l-48.989,48.99l-21.663,-21.663l-21.662,-21.662l48.654,-48.667M244.668,185.332c53.529,-53.532 97.634,-97.332 98.011,-97.332c0.377,0 10.275,9.603 21.995,21.341l21.309,21.34l-97.656,97.656l-97.656,97.657l-21.665,-21.665l-21.664,-21.664l97.326,-97.333M347.657,190.343l48.998,-49.011l22.002,22.002l22.002,22.002l-48.99,48.99l-48.989,48.99l-22.011,-21.98l-22.011,-21.981l48.999,-49.012"/></g></g></svg>