<?xml version="1.0" standalone="no"?>
<!DOCTYPE svg PUBLIC "-//W3C//DTD SVG 20010904//EN"
 "http://www.w3.org/TR/2001/REC-SVG-20010904/DTD/svg10.dtd">
<svg version="1.0" xmlns="http://www.w3.org/2000/svg"
 width="300.000000pt" height="300.000000pt" viewBox="0 0 300.000000 300.000000"
 preserveAspectRatio="xMidYMid meet">
<metadata>
Created by potrace 1.14, written by Peter Selinger 2001-2017
</metadata>
<g transform="translate(0.000000,300.000000) scale(0.100000,-0.100000)"
fill="#000000" stroke="none">
<path d="M1133 1863 c-398 -398 -723 -726 -723 -729 0 -2 72 -76 160 -164
l160 -160 730 730 730 730 -160 160 c-88 88 -164 160 -168 159 -4 -1 -332
-327 -729 -726z"/>
<path d="M365 1905 l-365 -365 161 -161 161 -161 25 24 c50 46 703 700 703
704 0 2 -72 76 -160 164 l-160 160 -365 -365z"/>
<path d="M1538 1458 l-727 -728 159 -160 c88 -88 162 -160 165 -160 4 0 333
326 732 725 647 648 723 727 711 742 -18 24 -281 286 -298 299 -12 8 -156
-130 -742 -718z"/>
<path d="M2334 1441 c-187 -186 -350 -350 -363 -364 l-23 -26 161 -160 161
-161 365 365 365 365 -160 160 c-88 88 -162 160 -164 160 -2 0 -156 -153 -342
-339z"/>
</g>
</svg>
